<?xml version="1.0" encoding="utf-8"?>
<!-- Generator: Adobe Illustrator 26.0.3, SVG Export Plug-In . SVG Version: 6.00 Build 0)  -->
<svg version="1.1" id="Layer_1" xmlns="http://www.w3.org/2000/svg" xmlns:xlink="http://www.w3.org/1999/xlink" x="0px" y="0px"
	 viewBox="0 0 243.9 208.6" style="enable-background:new 0 0 243.9 208.6;" xml:space="preserve">
<style type="text/css">
	.st0{fill:#1778B9;}
	.st1{fill:#AAC0E0;}
</style>
<polygon class="st0" points="52.8,208.6 44.8,208.6 39,169 48.6,176.8 "/>
<polygon class="st1" points="26,208.6 18.2,152.4 35.6,142.6 118.3,208.6 87.8,208.6 48.6,176.8 39,169 44.8,208.6 "/>
<path class="st0" d="M175.6,92l-2.4,8.8c-14.1,2.3-27.6,7-40,14.1c-12.7,7.2-21,15-24.9,23.3c-3.3,6.5-3.5,14.1-0.7,20.9
	c-0.9-1.2-1.8-2.5-2.6-3.9c-4.7-8.2-5.1-16.5-1.2-24.8s12.2-16.1,24.9-23.3C143.1,98.7,159.1,93.6,175.6,92z"/>
<path class="st0" d="M223.6,202c0.7,1.2,1.4,2.5,1.9,3.9c-2.6-3.9-6.2-7-10.4-9.1c-5.5-2.3-11.5-3.3-17.5-2.8
	c-6.7,0.4-18,1.6-33.9,3.6c-19.3,2.6-34.6,2.1-46-1.4s-20.3-11.1-26.9-22.7c-0.7-1.3-1.4-2.5-2-3.8c6.3,9.3,14.4,15.5,24.4,18.6
	c11.4,3.5,26.7,4,46,1.4c15.8-2.1,27.1-3.3,33.8-3.7c6-0.5,12,0.5,17.5,2.8C215.6,191.1,219.9,195.5,223.6,202z"/>
<path class="st1" d="M243.9,194.6v14h-17.3c-0.3-0.9-0.7-1.9-1.1-2.8c-0.5-1.3-1.2-2.6-1.9-3.9c-2.1-3.7-4.4-6.6-6.8-9l0,0
	c-1.9-1.8-4-3.2-6.1-4.1c-0.6-0.2-1.2-0.5-1.8-0.7l0,0c-0.3-0.1-0.6-0.2-0.9-0.3c-4.8-1.6-9.8-2.2-14.9-1.8
	c-6.7,0.4-18,1.6-33.8,3.7c-0.1,0-0.3,0-0.4,0c-12.9,1.7-24,2-33.3,1l0,0c-1.5-0.2-3-0.4-4.4-0.6c-0.5-0.1-1-0.2-1.4-0.2
	c-0.9-0.2-1.8-0.4-2.7-0.6l0,0c-0.9-0.2-1.7-0.4-2.6-0.7c-0.4-0.1-0.8-0.2-1.2-0.4c-6.9-2.1-12.8-5.7-18-10.8
	c-2.3-2.3-4.5-4.9-6.4-7.8c-0.9-1.3-1.7-2.6-2.5-4c-4.7-7.9-6.7-17.1-5.9-26.2c0.8-9.1,4.4-17.8,10.6-26
	c6.2-8.3,14.7-15.5,25.5-21.6c7.9-4.6,16.2-8.4,24.8-11.5c8-2.7,16.2-4.4,24.6-5.2l9.6,16.9l0,0l0,0l0,0c-11.3,1.1-22.5,3.9-33,8.2
	c-2.9,1.2-5.7,2.5-8.5,3.9c-1.8,0.9-3.7,1.9-5.5,2.9c-12.7,7.2-21,15-24.9,23.3s-3.5,16.6,1.2,24.8c0.8,1.3,1.6,2.7,2.6,3.9
	c2.5,3.4,5.8,6.2,9.6,8.1c5,2.4,11.3,3.7,19,3.7c10.1-0.2,20.2-1.1,30.1-2.7c14-2,25.3-3,34-2.8c8.2,0.1,16.3,2.2,23.5,6.2
	c7,3.9,13.2,10.5,18.5,19.9C242.8,192.5,243.4,193.5,243.9,194.6z"/>
<path class="st1" d="M196.4,0c0.7,5.1-0.1,10.3-2.5,14.9c-4.1,8.4-13.3,16.7-27.6,24.8c-4.7,2.7-9.5,5.1-14.4,7.2
	c-7.4,3.3-15.2,5.9-23.1,7.7c-5.3,1.2-10.7,2.2-16.1,2.7l10,17.6c7.2-0.5,15.8-2.5,25.6-6c9.9-3.5,19.4-7.9,28.5-13.1
	c19.5-11.1,32.1-23.3,37.7-36.7c2.6-6,3.8-12.6,3.4-19.1C217.9,0,196.4,0,196.4,0z"/>
<polygon class="st0" points="128.8,54.6 128.8,54.6 112.7,57.3 117.9,45.8 "/>
<polygon class="st0" points="88.9,21.4 23,58.8 23,58.9 14.3,0 22.1,0 28.7,49.7 84.7,17.9 "/>
<polygon class="st0" points="32.1,74.5 39,120.9 34.1,132.2 26.4,77.7 "/>
<path class="st1" d="M151.9,46.9c-7.5,3.2-15.2,5.8-23.1,7.7l-3.2-2.6l-0.2-0.1l-7.6-6l0,0l-14.7-11.8l-71,40.4l-5.7,3.2l7.7,54.5
	l-19,10.8L0,33.8V0h14.3L23,58.8l65.9-37.5l-4.3-3.5L62.6,0h30.6L151.9,46.9z"/>
</svg>
